<?xml version="1.0" standalone="no"?>
<!DOCTYPE svg PUBLIC "-//W3C//DTD SVG 20010904//EN"
 "http://www.w3.org/TR/2001/REC-SVG-20010904/DTD/svg10.dtd">
<svg version="1.0" xmlns="http://www.w3.org/2000/svg"
 width="2048.000000pt" height="2048.000000pt" viewBox="0 0 2048.000000 2048.000000"
 preserveAspectRatio="xMidYMid meet">
<metadata>
Created by potrace 1.14, written by Peter Selinger 2001-2017
</metadata>
<g transform="translate(0.000000,2048.000000) scale(0.100000,-0.100000)"
fill="#000000" stroke="none">
<path d="M10230 17854 c-29 -6 -56 -18 -123 -56 -26 -15 -74 -36 -107 -47 -67
-22 -151 -76 -250 -162 -38 -32 -74 -59 -81 -59 -7 0 -35 -24 -63 -54 -104
-110 -182 -155 -266 -155 -43 0 -69 7 -225 67 -70 26 -71 26 -355 27 -329 0
-370 -6 -552 -80 -154 -63 -168 -70 -209 -102 -265 -206 -574 -529 -684 -714
-43 -72 -155 -292 -155 -303 0 -2 -15 -37 -34 -78 -71 -153 -87 -200 -96 -287
-26 -247 -30 -297 -30 -354 0 -66 25 -154 53 -185 15 -16 27 -61 59 -212 5
-25 13 -142 18 -260 5 -118 14 -262 20 -320 5 -58 10 -181 10 -273 0 -157 -1
-168 -19 -175 -11 -4 -93 -3 -183 3 -215 13 -615 12 -803 -2 -174 -12 -168
-15 -205 82 -61 156 -74 176 -156 229 -54 35 -64 60 -64 158 0 80 0 81 36 114
19 19 39 34 44 34 5 0 62 34 127 75 86 54 147 103 226 180 59 59 107 111 107
117 0 6 18 34 39 62 59 76 104 210 105 311 1 74 -16 156 -36 179 -4 6 -8 18
-8 27 0 66 -228 279 -297 279 -37 0 -180 57 -215 86 -15 12 -41 25 -58 29 -16
4 -32 11 -35 16 -10 15 -86 46 -147 59 -44 10 -70 10 -114 1 -32 -6 -76 -11
-100 -11 -47 0 -149 -42 -219 -90 -24 -16 -47 -30 -50 -30 -25 0 -261 -231
-295 -288 -9 -15 -26 -54 -39 -87 -12 -33 -26 -67 -31 -76 -5 -9 -8 -70 -9
-136 0 -106 -3 -126 -25 -176 -40 -91 -146 -221 -300 -369 -116 -110 -178
-192 -261 -342 -14 -25 -37 -67 -52 -93 -50 -90 -102 -198 -103 -213 0 -9 -4
-20 -9 -25 -5 -6 -12 -48 -15 -95 -6 -85 -17 -181 -37 -320 -7 -41 -12 -136
-13 -210 -1 -122 1 -139 21 -176 41 -77 112 -123 335 -219 129 -56 418 -104
708 -117 284 -13 387 -13 601 -4 210 10 328 1 599 -44 86 -14 177 -28 275 -40
146 -18 228 -35 346 -69 19 -6 46 -22 59 -36 21 -22 22 -28 11 -49 -9 -15 -11
-38 -7 -63 4 -21 10 -63 12 -93 3 -30 10 -59 15 -64 5 -6 9 -25 9 -42 0 -18 5
-36 10 -39 6 -3 10 -17 10 -30 0 -13 5 -27 10 -30 6 -3 10 -17 10 -30 0 -13 5
-27 10 -30 6 -3 10 -13 10 -22 0 -44 243 -485 280 -508 6 -4 23 -25 38 -47 44
-67 55 -84 90 -132 17 -26 32 -51 32 -55 0 -4 9 -16 20 -26 11 -10 20 -24 20
-32 0 -7 5 -13 10 -13 6 0 10 -5 10 -10 0 -6 19 -41 43 -78 109 -169 204 -347
342 -636 31 -65 63 -125 71 -133 7 -8 14 -28 14 -44 0 -16 4 -29 8 -29 5 0 20
-21 33 -47 13 -27 27 -49 32 -51 4 -2 7 -12 7 -23 0 -10 5 -19 10 -19 6 0 10
-7 10 -15 0 -8 4 -24 10 -35 6 -11 15 -29 20 -40 6 -11 10 -27 10 -35 0 -8 5
-15 10 -15 6 0 10 -9 10 -20 0 -11 5 -20 10 -20 6 0 10 -7 10 -15 0 -8 4 -23
9 -33 5 -9 13 -28 19 -42 21 -54 97 -205 104 -208 5 -2 8 -10 8 -18 0 -8 9
-24 20 -36 11 -12 20 -28 20 -35 0 -7 5 -13 10 -13 6 0 10 -9 10 -20 0 -11 5
-20 10 -20 6 0 10 -9 10 -20 0 -11 5 -20 10 -20 6 0 10 -9 10 -20 0 -11 5 -20
10 -20 6 0 10 -9 10 -20 0 -11 5 -20 10 -20 6 0 10 -9 10 -19 0 -11 4 -21 8
-23 4 -1 25 -38 46 -81 21 -43 43 -83 50 -90 11 -12 51 -93 66 -132 4 -11 17
-40 29 -63 11 -24 21 -49 21 -56 0 -15 82 -179 101 -202 7 -9 18 -24 24 -34
27 -47 81 -120 87 -120 5 0 8 -6 8 -14 0 -7 35 -46 78 -87 122 -118 132 -134
132 -223 0 -76 -12 -126 -29 -126 -6 0 -21 -11 -34 -24 -41 -41 -137 -84 -272
-122 -27 -8 -105 -17 -172 -21 -99 -5 -131 -3 -173 11 -71 23 -119 56 -127 86
-3 14 -19 52 -34 86 -16 34 -29 65 -29 70 0 5 -21 51 -47 102 l-47 92 -164 0
-164 0 -61 -58 c-34 -32 -87 -76 -117 -98 -30 -21 -91 -72 -135 -112 -92 -85
-133 -114 -230 -167 -38 -20 -110 -67 -160 -104 -49 -37 -110 -80 -135 -95
-45 -29 -131 -123 -156 -172 -8 -14 -14 -37 -14 -50 0 -12 -5 -26 -10 -29 -13
-8 -13 -155 0 -155 6 0 10 -9 10 -20 0 -11 5 -20 10 -20 6 0 10 -9 10 -20 0
-11 5 -20 10 -20 6 0 10 -8 10 -18 0 -10 5 -23 12 -30 7 -7 12 -50 11 -119 0
-126 -18 -197 -89 -350 -25 -54 -53 -114 -62 -133 -8 -19 -23 -46 -32 -60 -9
-14 -34 -65 -55 -115 -21 -49 -60 -138 -86 -197 -26 -58 -55 -124 -64 -145
-10 -21 -57 -119 -105 -218 -124 -253 -140 -290 -211 -482 -12 -32 -29 -76
-39 -98 -9 -22 -21 -51 -25 -65 -20 -67 -89 -228 -109 -255 -12 -16 -37 -64
-55 -105 -18 -41 -41 -84 -51 -95 -10 -11 -29 -41 -42 -67 -75 -151 -115 -221
-131 -229 -9 -5 -24 -26 -32 -46 -20 -47 -43 -73 -66 -73 -22 0 -76 68 -107
134 -13 28 -32 60 -42 71 -10 11 -34 64 -54 119 -42 110 -63 156 -227 476 -63
124 -128 254 -144 290 -32 73 -230 474 -264 533 -41 74 -161 243 -209 297
l-50 54 -40 -27 c-93 -61 -154 -200 -184 -417 -13 -98 -13 -495 1 -730 7 -102
16 -288 21 -415 13 -294 33 -488 80 -765 6 -36 13 -87 16 -115 2 -27 13 -69
24 -92 11 -24 20 -50 20 -58 0 -8 5 -15 10 -15 6 0 10 -6 10 -14 0 -13 13 -42
61 -138 12 -24 27 -53 33 -65 6 -13 14 -23 19 -23 4 0 7 -9 7 -20 0 -11 5 -20
10 -20 6 0 10 -7 10 -15 0 -9 9 -25 20 -37 11 -12 20 -28 20 -35 0 -7 5 -13
10 -13 6 0 10 -6 10 -12 0 -7 14 -29 30 -48 16 -19 30 -39 30 -44 0 -6 39 -51
87 -101 49 -50 122 -127 163 -171 122 -129 260 -225 505 -353 62 -32 90 -41
130 -41 145 0 348 105 400 206 11 22 31 53 45 70 26 30 124 222 140 273 5 14
25 71 44 126 20 55 36 119 36 143 0 24 8 60 18 80 71 143 162 279 216 325 25
21 81 81 125 135 96 117 334 361 451 461 47 40 105 93 130 117 55 54 148 137
214 189 45 36 189 190 263 281 113 138 212 268 213 277 0 9 14 27 52 65 14 15
56 68 93 117 37 50 79 105 93 124 15 19 29 39 31 45 2 6 13 22 25 36 22 25
106 157 106 166 0 3 28 46 62 97 72 107 118 192 118 220 0 11 4 36 10 56 5 20
12 48 15 64 10 48 38 67 99 67 95 0 292 -51 416 -108 93 -42 193 -83 245 -99
28 -8 55 -18 60 -23 6 -4 21 -10 35 -13 14 -2 63 -16 110 -29 47 -14 139 -40
205 -58 66 -18 177 -54 246 -81 69 -27 133 -49 141 -49 8 0 29 -14 46 -30 18
-17 38 -30 45 -30 8 0 42 -18 76 -40 34 -22 64 -40 67 -40 10 0 62 -45 259
-220 84 -75 191 -157 300 -230 153 -102 341 -249 440 -345 168 -162 358 -332
436 -392 83 -63 114 -90 290 -252 68 -62 144 -127 169 -144 25 -17 54 -40 65
-50 11 -10 71 -57 134 -104 62 -47 141 -112 175 -145 33 -32 80 -73 102 -89
23 -17 47 -40 54 -52 7 -12 49 -54 94 -94 44 -40 97 -86 116 -103 19 -17 68
-56 108 -88 41 -31 97 -76 126 -100 63 -53 130 -86 221 -108 39 -9 79 -20 90
-24 45 -17 105 -29 200 -40 55 -6 120 -15 145 -20 25 -5 60 -12 78 -15 17 -4
32 -10 32 -14 0 -3 17 -29 38 -57 21 -28 58 -100 82 -160 46 -115 80 -179 162
-305 43 -68 61 -85 146 -141 144 -96 162 -103 267 -103 112 0 194 15 310 54
50 17 116 40 148 50 31 11 70 27 85 35 15 8 65 33 112 57 47 23 87 45 88 50 2
5 9 9 14 9 20 0 202 113 257 159 78 65 176 184 189 229 7 22 17 117 22 212 11
196 8 214 -73 420 -38 97 -41 112 -40 200 0 66 6 119 21 172 27 97 67 202 91
242 21 36 66 115 93 166 10 19 28 51 40 70 11 19 46 85 78 145 162 311 198
375 241 435 96 132 189 149 589 107 92 -10 237 -15 395 -15 242 0 332 -6 534
-38 131 -21 187 -10 259 51 45 38 52 85 18 135 -14 22 -26 43 -26 48 0 14
-200 206 -287 276 -45 36 -127 99 -181 139 -54 39 -146 107 -203 150 -57 42
-145 104 -195 136 -49 32 -131 88 -181 124 -50 36 -110 75 -134 88 -24 12 -82
48 -129 79 -128 86 -242 144 -380 195 -69 25 -147 55 -175 65 -27 10 -111 37
-185 61 -74 23 -160 49 -190 59 -106 34 -169 43 -306 44 -216 2 -279 -27 -340
-152 -53 -109 -52 -106 -58 -222 -11 -209 -62 -366 -160 -497 -54 -72 -212
-228 -285 -282 -62 -47 -99 -79 -193 -168 l-66 -63 -254 0 -253 0 -125 83
c-226 148 -285 199 -346 298 -37 62 -42 98 -19 151 18 45 119 138 149 138 13
0 29 8 37 18 29 34 99 181 99 205 0 14 5 29 10 32 6 3 10 39 10 78 1 166 67
682 93 724 4 7 14 83 22 170 8 87 22 208 30 268 8 61 15 139 16 175 3 147 -2
337 -10 365 -5 17 -17 83 -27 147 -9 64 -20 122 -24 128 -9 14 -113 39 -166
40 -52 0 -240 -38 -275 -56 -36 -18 -141 -41 -229 -49 -41 -4 -100 -16 -130
-27 -63 -22 -298 -43 -370 -33 -63 9 -83 25 -129 103 -40 66 -53 130 -33 157
16 22 54 35 104 35 28 0 79 5 112 11 99 18 239 49 261 58 38 17 131 30 315 48
200 18 329 19 540 1 139 -11 364 -5 480 12 36 6 97 15 135 21 180 26 356 63
430 90 28 9 70 23 95 30 25 7 56 19 70 26 14 7 32 13 41 13 26 0 122 33 264
90 164 66 345 126 438 145 40 8 110 24 157 36 47 11 104 24 128 30 23 5 61 13
85 19 84 19 354 73 452 90 55 10 145 27 200 38 55 12 143 28 195 38 84 15 122
25 195 54 35 14 160 74 165 80 3 3 21 14 41 23 20 9 42 23 49 32 7 8 16 15 21
15 13 0 170 120 197 150 12 14 20 31 17 38 -3 8 -8 32 -11 53 -13 77 -89 95
-474 106 -389 12 -818 9 -1130 -6 -230 -11 -306 -11 -460 0 -235 16 -358 17
-490 2 -58 -7 -163 -17 -235 -23 -179 -14 -302 -34 -470 -75 -79 -19 -162 -35
-184 -35 -22 0 -87 -6 -143 -14 -57 -8 -159 -19 -228 -25 -216 -20 -504 -54
-685 -82 -64 -10 -275 -36 -390 -49 -38 -4 -115 -15 -170 -23 -55 -9 -154 -23
-220 -31 -419 -56 -459 -57 -575 -15 -36 13 -162 137 -182 179 -24 50 -65 152
-100 250 -17 47 -47 119 -68 160 -37 73 -90 219 -90 246 0 7 -16 48 -35 90
-48 105 -64 156 -75 233 -5 36 -14 84 -19 106 -20 89 -34 152 -42 195 -16 89
-28 138 -53 209 -35 100 -45 244 -21 295 l18 38 171 -4 c207 -5 215 -8 340
-128 144 -138 182 -197 221 -342 28 -105 67 -170 149 -245 72 -66 212 -173
226 -173 7 0 36 20 65 45 42 36 54 53 58 83 3 20 17 82 31 136 14 54 26 110
26 123 0 31 37 168 59 218 10 22 43 78 75 124 55 82 57 86 54 145 -3 55 -6 61
-33 77 -51 30 -180 59 -260 59 -76 0 -150 21 -241 68 -57 30 -179 142 -274
252 -46 52 -131 142 -190 200 -117 114 -131 140 -161 295 -6 33 -18 84 -26
113 -24 86 -2 194 46 235 16 13 36 35 46 50 9 15 24 27 33 27 9 0 32 15 52 34
19 18 87 60 150 93 63 33 133 70 155 83 54 31 155 85 300 159 65 34 125 66
131 72 21 17 174 89 190 89 8 0 34 9 56 20 23 11 54 20 70 20 43 0 143 -58
189 -109 23 -25 76 -82 118 -127 102 -108 172 -189 234 -271 64 -84 207 -229
310 -313 42 -34 77 -67 77 -73 0 -6 6 -18 14 -26 37 -43 66 -113 66 -162 0
-54 -32 -130 -69 -163 -12 -11 -48 -56 -79 -99 -31 -44 -82 -114 -112 -156
-31 -42 -62 -90 -69 -108 -9 -21 -13 -91 -14 -220 -2 -176 -1 -191 21 -235 12
-26 22 -52 22 -57 0 -16 112 -131 127 -131 7 0 13 -7 13 -15 0 -8 6 -15 13
-15 8 0 22 -9 32 -20 18 -20 113 -53 127 -44 5 3 15 1 22 -5 37 -31 304 -41
432 -16 44 8 104 20 134 26 30 6 69 16 85 24 17 7 55 18 85 24 136 30 252 121
318 253 32 62 35 75 44 222 10 146 10 163 -11 249 -11 50 -28 144 -37 207 -24
180 -54 297 -108 414 -14 31 -26 59 -26 61 0 3 -24 55 -54 118 -57 119 -116
252 -116 260 0 2 -25 58 -56 122 -56 118 -279 463 -386 597 -29 36 -82 103
-118 149 -83 107 -306 330 -390 392 -101 74 -239 185 -329 265 -127 112 -97
106 -530 110 -426 4 -386 10 -611 -89 -74 -33 -155 -68 -180 -79 -147 -60
-182 -76 -243 -113 -38 -22 -96 -50 -130 -62 -373 -133 -627 -236 -667 -270
-20 -17 -152 -85 -220 -114 -43 -18 -80 -24 -170 -28 -113 -5 -116 -5 -200 30
l-85 34 2 61 c2 74 18 99 142 222 48 47 121 121 163 165 42 44 122 124 177
178 56 54 101 103 101 108 0 6 8 23 19 37 10 15 24 45 31 67 7 22 22 60 34 84
17 39 20 67 20 210 1 161 0 168 -26 216 -51 96 -167 216 -242 249 -57 26 -146
67 -221 102 -51 24 -79 57 -96 116 -15 52 -22 275 -9 283 6 4 8 14 5 24 -3 9
1 25 8 35 12 16 29 19 143 18 71 0 174 -1 230 -3 89 -2 105 0 135 19 19 12 48
28 65 36 41 20 55 38 67 89 20 88 3 278 -34 375 -20 52 -7 75 127 229 80 91
90 123 86 255 -1 41 -7 62 -20 75 -11 10 -21 25 -25 34 -6 17 -99 39 -168 39
-84 1 -159 56 -205 153 -30 65 -126 185 -157 196 -26 10 -212 21 -247 15z"/>
</g>
</svg>
